<mxfile host="65bd71144e">
    <diagram id="BdhmR91ehoMnTaQIsp19" name="Página-1">
        <mxGraphModel dx="519" dy="345" grid="1" gridSize="10" guides="1" tooltips="1" connect="1" arrows="1" fold="1" page="1" pageScale="1" pageWidth="827" pageHeight="1169" math="0" shadow="0">
            <root>
                <mxCell id="0"/>
                <mxCell id="1" parent="0"/>
                <mxCell id="2" value="Kate: Persona" style="swimlane;" parent="1" vertex="1">
                    <mxGeometry x="100" y="150" width="200" height="140" as="geometry"/>
                </mxCell>
                <mxCell id="3" value="&lt;br&gt;Nombre = &quot;Kate&quot;&lt;br&gt;Apellido Casada = &quot;Windsor&quot;&lt;br&gt;Apellido Soltera = &quot;Middleton&quot;&lt;br&gt;Sexo = &quot;Mujer&quot;&lt;br&gt;País de residencia = &quot;Inglaterra&quot;" style="text;html=1;align=center;verticalAlign=middle;resizable=0;points=[];autosize=1;strokeColor=none;fillColor=none;" parent="1" vertex="1">
                    <mxGeometry x="95" y="175" width="190" height="90" as="geometry"/>
                </mxCell>
                <mxCell id="9" style="edgeStyle=none;html=1;exitX=1;exitY=1;exitDx=0;exitDy=0;" edge="1" parent="1" source="4">
                    <mxGeometry relative="1" as="geometry">
                        <mxPoint x="620.3103448275863" y="290.1724137931035" as="targetPoint"/>
                    </mxGeometry>
                </mxCell>
                <mxCell id="4" value="Guillermo: Persona" style="swimlane;" vertex="1" parent="1">
                    <mxGeometry x="450" y="150" width="185" height="140" as="geometry"/>
                </mxCell>
                <mxCell id="8" value="Nombre = &quot;Guillermo&quot;&lt;br&gt;Apellido Soltero = &quot;Windsor&quot;&lt;br&gt;Sexo = &quot;Hombre&quot;&lt;br&gt;País de residencia = &quot;Inglaterra&quot;&lt;br&gt;" style="text;html=1;align=center;verticalAlign=middle;resizable=0;points=[];autosize=1;strokeColor=none;fillColor=none;" vertex="1" parent="4">
                    <mxGeometry x="-5" y="40" width="190" height="60" as="geometry"/>
                </mxCell>
                <mxCell id="5" value="" style="endArrow=classic;html=1;" edge="1" parent="1">
                    <mxGeometry width="50" height="50" relative="1" as="geometry">
                        <mxPoint x="300" y="230" as="sourcePoint"/>
                        <mxPoint x="450" y="230" as="targetPoint"/>
                    </mxGeometry>
                </mxCell>
                <mxCell id="6" value="Esta casada con:" style="text;html=1;strokeColor=none;fillColor=none;align=center;verticalAlign=middle;whiteSpace=wrap;rounded=0;" vertex="1" parent="1">
                    <mxGeometry x="320" y="190" width="110" height="30" as="geometry"/>
                </mxCell>
                <mxCell id="11" value="Diana: Persona" style="swimlane;" vertex="1" parent="1">
                    <mxGeometry x="100" y="410" width="200" height="200" as="geometry"/>
                </mxCell>
                <mxCell id="15" value="Nombre = &quot;Diana&quot;&lt;br&gt;Apellido Casada = &quot;Windsor&quot;&lt;br&gt;Apellido Soltera = &quot;Middleton&quot;&lt;br&gt;Sexo = &quot;Mujer&quot;&lt;br&gt;País de residencia = &quot;Inglaterra&quot;" style="text;html=1;align=center;verticalAlign=middle;resizable=0;points=[];autosize=1;strokeColor=none;fillColor=none;" vertex="1" parent="11">
                    <mxGeometry y="60" width="190" height="80" as="geometry"/>
                </mxCell>
                <mxCell id="12" value="Carlos: Persona" style="swimlane;" vertex="1" parent="1">
                    <mxGeometry x="442.5" y="410" width="200" height="200" as="geometry"/>
                </mxCell>
                <mxCell id="13" value="Nombre = &quot;Carlos&quot;&lt;br&gt;Apellido Soltero = &quot;Windsor&quot;&lt;br&gt;Sexo = &quot;Hombre&quot;&lt;br&gt;País de residencia = &quot;Inglaterra&quot;" style="text;html=1;align=center;verticalAlign=middle;resizable=0;points=[];autosize=1;strokeColor=none;fillColor=none;" vertex="1" parent="12">
                    <mxGeometry x="2.5" y="70" width="190" height="60" as="geometry"/>
                </mxCell>
                <mxCell id="17" value="" style="endArrow=classic;html=1;entryX=1;entryY=0;entryDx=0;entryDy=0;" edge="1" parent="1" target="11">
                    <mxGeometry width="50" height="50" relative="1" as="geometry">
                        <mxPoint x="450" y="270" as="sourcePoint"/>
                        <mxPoint x="450" y="270" as="targetPoint"/>
                    </mxGeometry>
                </mxCell>
                <mxCell id="19" value="Es hijo de:" style="text;html=1;strokeColor=none;fillColor=none;align=center;verticalAlign=middle;whiteSpace=wrap;rounded=0;rotation=-45;" vertex="1" parent="1">
                    <mxGeometry x="330" y="320" width="60" height="30" as="geometry"/>
                </mxCell>
                <mxCell id="21" value="" style="endArrow=classic;html=1;entryX=0.434;entryY=-0.013;entryDx=0;entryDy=0;entryPerimeter=0;" edge="1" parent="1" target="12">
                    <mxGeometry width="50" height="50" relative="1" as="geometry">
                        <mxPoint x="530" y="290" as="sourcePoint"/>
                        <mxPoint x="490" y="370" as="targetPoint"/>
                    </mxGeometry>
                </mxCell>
                <mxCell id="22" value="Es hijo de:&lt;br&gt;" style="text;html=1;strokeColor=none;fillColor=none;align=center;verticalAlign=middle;whiteSpace=wrap;rounded=0;rotation=90;" vertex="1" parent="1">
                    <mxGeometry x="520" y="340" width="60" height="30" as="geometry"/>
                </mxCell>
                <mxCell id="23" value="" style="endArrow=classic;html=1;" edge="1" parent="1">
                    <mxGeometry width="50" height="50" relative="1" as="geometry">
                        <mxPoint x="440" y="500" as="sourcePoint"/>
                        <mxPoint x="300" y="500" as="targetPoint"/>
                    </mxGeometry>
                </mxCell>
                <mxCell id="24" value="Está casado con:" style="text;html=1;strokeColor=none;fillColor=none;align=center;verticalAlign=middle;whiteSpace=wrap;rounded=0;" vertex="1" parent="1">
                    <mxGeometry x="325" y="470" width="100" height="30" as="geometry"/>
                </mxCell>
            </root>
        </mxGraphModel>
    </diagram>
</mxfile>